<svg xmlns="http://www.w3.org/2000/svg" viewBox="0 0 24 24" fill="currentColor"><path d="M12 0C5.376 0 0 5.376 0 12s5.376 12 12 12 12-5.376 12-12S18.624 0 12 0zm6 9.6v4.8c0 2.4-1.8 4.2-4.2 4.2H10.2C7.8 18.6 6 16.8 6 14.4V9.6C6 7.2 7.8 5.4 10.2 5.4h3.6c2.4 0 4.2 1.8 4.2 4.2zm-2.4 2.4c0-1.32-1.08-2.4-2.4-2.4h-2.4c-1.32 0-2.4 1.08-2.4 2.4v2.4c0 1.32 1.08 2.4 2.4 2.4h2.4c1.32 0 2.4-1.08 2.4-2.4V12zm-1.2 1.2c0 .66-.54 1.2-1.2 1.2h-2.4c-.66 0-1.2-.54-1.2-1.2v-2.4c0-.66.54-1.2 1.2-1.2h2.4c.66 0 1.2.54 1.2 1.2v2.4z"/></svg>