<svg xmlns="http://www.w3.org/2000/svg" viewBox="0 0 24 24" fill="currentColor"><path d="M12 0C5.376 0 0 5.376 0 12s5.376 12 12 12 12-5.376 12-12S18.624 0 12 0zm6.24 9.36v2.16c-.96 0-1.872-.192-2.712-.576v3.768c0 2.832-2.304 5.136-5.136 5.136-2.832 0-5.136-2.304-5.136-5.136s2.304-5.136 5.136-5.136c.144 0 .288.024.432.048v2.232c-.144-.024-.288-.048-.432-.048-1.608 0-2.904 1.296-2.904 2.904s1.296 2.904 2.904 2.904c1.608 0 2.904-1.296 2.904-2.904V4.8h2.232c0 2.088 1.704 3.792 3.792 3.792.312 0 .624-.048.912-.144v.912z"/></svg>